<svg xmlns="http://www.w3.org/2000/svg" viewBox="0 0 32 20"><rect width="32" height="20" fill="#1a1f71" rx="2"/><path fill="#fff" d="M11.7 12.3L13 4.8h-2.1c-.5 0-.8.2-1 .6L7 11.2l-.3-1.4c-.1-.4-.3-.8-.9-1.2l-3-.7v.4c1 .2 2 .7 2.4 1.3l2.2 8.3h2.4l3.7-17.5h-2.3zm6.6-7.5l-1.6 7.5h2.2l1.6-7.5h-2.2zm4.7 0l-1.3 6.3c-.1.5-.4.8-1 .8h-3l1.8-8.4h2.4c.6 0 1.1.3 1.3.9l.8 3.7.2.9c0 .1.1.1.2.1h.4l-.4-2c-.2-.7-.7-1-1.3-1h-1.8l-1.1 5.3h1.8c.6 0 1.1-.5 1.2-1.2l.4-2h1.6zM26.9 4.8h-2c-.5 0-.9.2-1.1.6l-3.3 8.1-.5-2.2c-.1-.4.2-.8.7-.8h1.6v-2h-2.3c-.5 0-.9.2-1.1.6L16.6 17h2.4l.4-1.9h2.9l.3 1.9h2.3l-2.4-12.2z"/></svg>
